<?xml version="1.0" encoding="UTF-8"?>
<svg id="Layer_2" data-name="Layer 2" xmlns="http://www.w3.org/2000/svg" xmlns:xlink="http://www.w3.org/1999/xlink" viewBox="0 0 660 75.06">
  <defs>
    <style>
      .cls-1 {
        fill: #bc955c;
      }

      .cls-2 {
        fill: #fff;
      }

      .cls-3 {
        fill: url(#linear-gradient);
        isolation: isolate;
        opacity: .8;
      }
    </style>
    <linearGradient id="linear-gradient" x1="146.03" y1="991.22" x2="146.03" y2="1065.19" gradientTransform="translate(0 1065.48) scale(1 -1)" gradientUnits="userSpaceOnUse">
      <stop offset="0" stop-color="#bc955c" stop-opacity="0"/>
      <stop offset=".22" stop-color="#bc955c" stop-opacity=".25"/>
      <stop offset=".6" stop-color="#bc955c" stop-opacity=".65"/>
      <stop offset=".87" stop-color="#bc955c" stop-opacity=".9"/>
      <stop offset="1" stop-color="#bc955c"/>
    </linearGradient>
  </defs>
  <g id="ART">
    <g>
      <path class="cls-2" d="M49.77,9.95c0,.4-.3.89-.8,1.59l-2.87,4.26c-.5.69-1.09,1.09-1.59,1.09-.4,0-.89-.2-1.59-.69-5.25-3.87-10.71-6.25-16.95-6.25-7.53,0-12.89,3.97-12.89,10.31s4.36,8.62,15.27,11.5c15.07,3.77,21.72,8.92,21.72,19.83,0,12.5-10.61,20.62-25.48,20.62-9.02,0-16.86-3.27-23.5-8.53-.69-.69-1.09-1.19-1.09-1.69s.2-.99.69-1.69l2.97-4.17c.5-.69.99-1.09,1.49-1.09.3,0,.8.3,1.49.8,6.05,4.66,12.1,7.04,18.15,7.04,9.12,0,14.97-4.17,14.97-10.61s-3.77-8.43-15.67-11.5c-13.89-3.46-21.43-8.32-21.43-19.92C2.67,8.27,12.79.63,26.07.63c8.33,0,15.87,2.58,22.61,7.83.69.5,1.09,1.09,1.09,1.49Z"/>
      <path class="cls-2" d="M105.2,68.95c0,1.69-.59,2.18-2.18,2.18h-37.58c-1.59,0-2.18-.5-2.18-2.18V3.9c0-1.69.59-2.18,2.18-2.18h37.48c1.59,0,2.18.5,2.18,2.18v5.06c0,1.69-.59,2.18-2.18,2.18h-28.56c-.89,0-1.19.3-1.19,1.09v18.15c0,.89.3,1.19,1.19,1.19h25.18c1.59,0,2.18.5,2.18,2.18v4.96c0,1.59-.59,2.18-2.18,2.18h-25.18c-.89,0-1.19.3-1.19,1.09v18.64c0,.79.3,1.09,1.19,1.09h28.65c1.59,0,2.18.5,2.18,2.18v5.06h0Z"/>
      <path class="cls-2" d="M196.35,68.95c0,1.69-.59,2.18-2.18,2.18h-5.55c-1.59,0-2.18-.5-2.18-2.18V3.9c0-1.69.59-2.18,2.18-2.18h19.43c18.64,0,27.76,7.44,27.76,21.32,0,9.92-4.96,16.16-13.58,19.23l17.15,25.88c.5.89.8,1.49.8,1.88,0,.69-.69,1.09-2.18,1.09h-5.95c-2.28,0-3.17-.59-4.46-2.68l-14.38-22.21c-.69-1.09-1.29-1.39-2.58-1.39h-13.09c-.89,0-1.19.3-1.19,1.19v22.9h0ZM196.35,34.64c0,.89.3,1.19,1.19,1.19h10.61c11.5,0,17.35-3.97,17.35-12.39s-6.34-12.3-17.95-12.3h-10.01c-.89,0-1.19.3-1.19,1.09v22.41h0Z"/>
      <path class="cls-2" d="M302.55,54.77c.5,0,1.09.5,1.49.99l2.87,3.97c.3.4.5.89.5,1.39s-.4,1.09-1.19,1.78c-7.04,5.95-16.06,9.32-25.68,9.32-19.23.4-35.7-15.37-35.3-35.5-.3-20.33,15.87-36.39,35.9-36.09,9.52,0,18.44,3.57,25.18,9.22.69.5.99.99.99,1.49s-.2.99-.59,1.59l-2.87,3.87c-.5.69-1.09,1.09-1.59,1.09-.4,0-.99-.3-1.69-.8-5.65-4.36-12.39-7.04-19.63-7.04-14.18,0-25.39,11.11-25.39,26.48-.2,14.67,11.2,26.57,25.39,26.28,7.44,0,14.08-2.38,19.93-7.14.69-.59,1.29-.89,1.69-.89h0Z"/>
      <path class="cls-2" d="M366.2,71.13c-1.59,0-2.18-.5-2.18-2.18v-27.66c0-.8-.3-1.09-1.19-1.09h-32.82c-.89,0-1.19.3-1.19,1.09v27.67c0,1.69-.59,2.18-2.18,2.18h-5.55c-1.59,0-2.18-.5-2.18-2.18V3.9c0-1.69.59-2.18,2.18-2.18h5.55c1.59,0,2.18.5,2.18,2.18v25.78c0,.79.3,1.19,1.19,1.19h32.82c.89,0,1.19-.4,1.19-1.19V3.9c0-1.69.59-2.18,2.18-2.18h5.55c1.59,0,2.18.5,2.18,2.18v65.05c0,1.69-.59,2.18-2.18,2.18h-5.55Z"/>
      <path class="cls-1" d="M430.56,64.79c1.49,0,1.98.4,1.98,1.98v2.38c0,1.59-.5,1.98-1.98,1.98h-36.59c-1.49,0-1.98-.4-1.98-1.98V3.71c0-1.59.5-1.98,1.98-1.98h2.48c1.49,0,1.98.4,1.98,1.98v60.09c0,.69.3.99.99.99h31.14Z"/>
      <path class="cls-1" d="M447.81,71.13c-1.49,0-1.98-.4-1.98-1.98V3.71c0-1.59.5-1.98,1.98-1.98h2.48c1.49,0,1.98.4,1.98,1.98v65.44c0,1.59-.5,1.98-1.98,1.98h-2.48Z"/>
      <path class="cls-1" d="M501.06,72.13c-18.25.3-34.81-14.57-34.51-35.3-.3-21.42,16.46-36.39,35.9-36.09,9.22,0,17.95,3.37,24.2,8.03.69.5.99.89.99,1.39,0,.4-.2.89-.59,1.39l-1.69,2.08c-.4.5-.8.8-1.29.8-.4,0-.89-.2-1.49-.59-5.95-4.06-12.89-6.74-20.43-6.74-16.66,0-28.85,12.29-28.85,29.45-.3,17.25,13.48,29.55,28.36,29.25,7.04,0,12.59-1.09,18.15-3.37,1.19-.5,1.39-.89,1.39-1.78v-19.34c0-1.59.5-1.98,1.98-1.98h2.48c1.49,0,1.98.4,1.98,1.98v22.51c0,1.29-.3,1.98-1.49,2.48-7.83,3.87-16.16,5.85-25.09,5.85h0Z"/>
      <path class="cls-1" d="M592.08,71.13c-1.49,0-1.98-.4-1.98-1.98v-29.65c0-.69-.3-.99-.99-.99h-37.58c-.69,0-.99.3-.99.99v29.65c0,1.59-.5,1.98-1.98,1.98h-2.48c-1.49,0-1.98-.4-1.98-1.98V3.71c0-1.59.5-1.98,1.98-1.98h2.48c1.49,0,1.98.4,1.98,1.98v27.57c0,.69.3.99.99.99h37.58c.69,0,.99-.3.99-.99V3.71c0-1.59.5-1.98,1.98-1.98h2.48c1.49,0,1.98.4,1.98,1.98v65.44c0,1.59-.5,1.98-1.98,1.98h-2.48Z"/>
      <path class="cls-1" d="M637.89,8.07c-.69,0-.99.3-.99.99v60.09c0,1.59-.5,1.98-1.98,1.98h-2.48c-1.49,0-1.98-.4-1.98-1.98V9.06c0-.69-.3-.99-.99-.99h-20.13c-1.49,0-1.98-.4-1.98-1.98v-2.38c0-1.59.5-1.98,1.98-1.98h48.68c1.49,0,1.98.4,1.98,1.98v2.38c0,1.59-.5,1.98-1.98,1.98h-20.13Z"/>
      <path class="cls-3" d="M148.37,1.65l22.54,70.44c.32,1.03-.45,2.07-1.52,2.07l-46.72.1c-1.07,0-1.84-1.04-1.52-2.07L142.45,1.65c.98-1.77,4.59-1.88,5.92,0Z"/>
      <ellipse class="cls-1" cx="146" cy="72.09" rx="24.92" ry="2.97"/>
      <circle class="cls-1" cx="145.41" cy="3.45" r="3.45"/>
    </g>
  </g>
</svg>